<svg xmlns="http://www.w3.org/2000/svg" width="216.94" height="100" viewBox="0 0 216.94 100">
  <g id="Group_780" data-name="Group 780" transform="translate(-28.337 -113.386)">
    <path id="Path_3057" data-name="Path 3057" d="M63.4,143.5l22.15-28.761H82.276L60.053,143.5Z" transform="translate(2.494 0.106)" fill="#ff1721"/>
    <g id="Group_698" data-name="Group 698" transform="translate(28.347 113.386)">
      <path id="Path_3058" data-name="Path 3058" d="M28.346,174.536H89.5v-61.15H28.346ZM88.04,173.08H29.8v-5.823h2.567a19.87,19.87,0,0,1,1.668-2.487c.2-.2,5.13-6.685,5.13-6.685h8.657l1.013,3.507s-2.527,3.3-3.2,4.1c-.4.469-1.553,1.565-1.553,1.565h4.072s.14-.338.466-.943a20.839,20.839,0,0,1,1.482-2s.5,1.567.543,1.831c.052.328.189,1.115.189,1.115h4.117s.146-.313.474-.918a15.738,15.738,0,0,1,1.518-1.912s.458,1.451.5,1.715c.051.328.188,1.115.188,1.115h5.262s-.786-1.364-.963-1.82c-.1-.252-1.75-5.408-1.75-5.408l1.371-1.945h8.723s1.987,6.39,2.223,7.234a9.191,9.191,0,0,1,.258,1.938H78.24c-.832-.589-2.923-7.979-3.938-10.819l-2.661-9.22a11.1,11.1,0,0,1-.228-1.62h-4.25a13.62,13.62,0,0,1-.879,1.651c-.327.607-5.725,7.684-6.912,9.189-.175.223-.276.347-.276.342s-.037-.147-.091-.342c-.2-.682-.6-2.05-.6-2.05s4.6-5.845,5.068-6.438a13.571,13.571,0,0,1,2.195-2.351H61.317a2.9,2.9,0,0,1-.44,1.328c-.209.321-3.774,4.791-3.774,4.791s-1.121-4.044-1.333-4.7a4.554,4.554,0,0,1-.17-1.421H50.371a14.007,14.007,0,0,1,.8,1.716l2.577,7.932-1.508,1.929c-.065-.1-2.791-9.042-2.907-9.415a19.776,19.776,0,0,1-.27-2.162H44.591a25.307,25.307,0,0,1-1.472,2.766c-.249.362-3.086,4.166-6.109,8.075-3.364,4.483-7.027,9.029-7.107,9.087a1.3,1.3,0,0,0-.1.1v-50.78H88.04ZM45.684,151.3c.2.783,1.323,4.254,1.323,4.254H41.19a57.672,57.672,0,0,0,4.3-5.813c.068-.149.082-.032.082.038a6.215,6.215,0,0,0,.114,1.521m7.564,8.915L54.8,158.2s.9,2.736,1.049,2.894l-1.6,2.2ZM68.031,151.3c.2.783,1.325,4.254,1.325,4.254H63.538a57.674,57.674,0,0,0,4.3-5.813c.068-.149.081-.032.081.038a6.215,6.215,0,0,0,.114,1.521" transform="translate(-28.346 -113.386)" fill="#00008f"/>
      <rect id="Rectangle_238" data-name="Rectangle 238" width="2.739" height="21.633" transform="translate(73.401 6.15)" fill="#00008f"/>
      <path id="Path_3059" data-name="Path 3059" d="M103.431,124.316h2.242l.231,2.307h.1c1.517-1.517,3.165-2.705,5.376-2.705,3.362,0,4.88,2.178,4.88,6.267v10.157h-2.7v-9.795c0-3-.923-4.286-3.034-4.286-1.648,0-2.771.859-4.387,2.473v11.608h-2.7Z" transform="translate(-22.443 -112.558)" fill="#00008f"/>
      <path id="Path_3060" data-name="Path 3060" d="M117.252,124.287h2.8l3.033,9.1c.461,1.583.989,3.2,1.484,4.716h.132c.462-1.517.989-3.132,1.45-4.716l3.034-9.1h2.671l-5.669,16.026h-3.168Z" transform="translate(-21.356 -112.529)" fill="#00008f"/>
      <path id="Path_3061" data-name="Path 3061" d="M142.9,131.042c0-3.232-1.452-4.978-3.956-4.978-2.245,0-4.289,1.813-4.62,4.978Zm-11.212,1.319c0-5.243,3.528-8.442,7.189-8.442,4.088,0,6.4,2.937,6.4,7.519a10.332,10.332,0,0,1-.1,1.55H134.357c.2,3.4,2.274,5.574,5.342,5.574a7.248,7.248,0,0,0,3.989-1.254l.958,1.782a9.562,9.562,0,0,1-5.276,1.649c-4.291,0-7.685-3.134-7.685-8.378" transform="translate(-20.221 -112.558)" fill="#00008f"/>
      <path id="Path_3062" data-name="Path 3062" d="M145.536,138.528l1.352-1.813a7.212,7.212,0,0,0,4.716,1.913c2.112,0,3.166-1.121,3.166-2.507,0-1.648-1.912-2.374-3.66-3.034-2.276-.825-4.782-1.913-4.782-4.615,0-2.575,2.044-4.552,5.506-4.552a8,8,0,0,1,4.981,1.813l-1.287,1.716a5.944,5.944,0,0,0-3.661-1.418c-2.013,0-2.936,1.088-2.936,2.308,0,1.517,1.75,2.076,3.563,2.769,2.309.859,4.88,1.815,4.88,4.848,0,2.6-2.076,4.783-5.869,4.783a9.646,9.646,0,0,1-5.969-2.211" transform="translate(-19.132 -112.558)" fill="#00008f"/>
      <path id="Path_3063" data-name="Path 3063" d="M159.224,135.694v-8.871H156.85v-2.045l2.506-.163.33-4.487h2.275v4.487h4.32v2.208h-4.32v8.9c0,1.979.627,3.1,2.473,3.1a5.848,5.848,0,0,0,1.815-.428l.525,2.045a9.887,9.887,0,0,1-2.966.593c-3.431,0-4.584-2.177-4.584-5.342" transform="translate(-18.243 -112.856)" fill="#00008f"/>
      <path id="Path_3064" data-name="Path 3064" d="M168.194,124.316h2.242l.231,2.307h.1a7.043,7.043,0,0,1,4.979-2.705,4.207,4.207,0,0,1,4.42,3.07c1.682-1.816,3.33-3.07,5.277-3.07,3.3,0,4.88,2.178,4.88,6.267v10.157h-2.7v-9.795c0-3-.956-4.286-2.967-4.286-1.254,0-2.54.825-4.023,2.473v11.608h-2.7v-9.795c0-3-.958-4.286-3-4.286-1.188,0-2.54.825-4.023,2.473v11.608h-2.7Z" transform="translate(-17.351 -112.558)" fill="#00008f"/>
      <path id="Path_3065" data-name="Path 3065" d="M202.286,131.042c0-3.232-1.452-4.978-3.956-4.978-2.242,0-4.289,1.813-4.618,4.978Zm-11.212,1.319c0-5.243,3.529-8.442,7.189-8.442,4.09,0,6.4,2.937,6.4,7.519a10.346,10.346,0,0,1-.1,1.55H193.746c.2,3.4,2.275,5.574,5.342,5.574a7.246,7.246,0,0,0,3.99-1.254l.957,1.782a9.559,9.559,0,0,1-5.276,1.649c-4.289,0-7.685-3.134-7.685-8.378" transform="translate(-15.552 -112.558)" fill="#00008f"/>
      <path id="Path_3066" data-name="Path 3066" d="M206.074,124.316h2.242l.231,2.307h.1c1.518-1.517,3.166-2.705,5.375-2.705,3.364,0,4.881,2.178,4.881,6.267v10.157h-2.7v-9.795c0-3-.923-4.286-3.034-4.286-1.648,0-2.77.859-4.385,2.473v11.608h-2.7Z" transform="translate(-14.373 -112.558)" fill="#00008f"/>
      <path id="Path_3067" data-name="Path 3067" d="M222.636,135.694v-8.871h-2.374v-2.045l2.506-.163.33-4.487h2.275v4.487h4.321v2.208h-4.321v8.9c0,1.979.627,3.1,2.473,3.1a5.856,5.856,0,0,0,1.815-.428l.526,2.045a9.887,9.887,0,0,1-2.967.593c-3.431,0-4.584-2.177-4.584-5.342" transform="translate(-13.257 -112.856)" fill="#00008f"/>
      <path id="Path_3068" data-name="Path 3068" d="M96.374,143.306h3.3l4.155,11.542c.529,1.483,1.024,3.033,1.55,4.516h.132c.529-1.483.958-3.033,1.485-4.516l4.089-11.542h3.331v21.633H111.84v-11.9c0-1.913.231-4.486.362-6.4h-.132l-1.714,4.915-4.09,11.211h-1.813l-4.09-11.211-1.715-4.915h-.132c.132,1.912.33,4.485.33,6.4v11.9H96.374Z" transform="translate(-22.998 -111.034)" fill="#00008f"/>
      <path id="Path_3069" data-name="Path 3069" d="M125.7,160.635v-4.453c-5.342.66-7.19,1.979-7.19,4.023,0,1.814,1.254,2.572,2.838,2.572,1.55,0,2.8-.758,4.352-2.143m-9.827-.231c0-3.5,3-5.244,9.827-6,0-2.045-.659-4.024-3.3-4.024a8.706,8.706,0,0,0-4.78,1.716l-1.056-1.881a11.886,11.886,0,0,1,6.3-2.075c3.924,0,5.573,2.6,5.573,6.594v9.828h-2.242l-.231-1.913h-.1a8.545,8.545,0,0,1-5.309,2.307,4.36,4.36,0,0,1-4.683-4.55" transform="translate(-21.465 -110.654)" fill="#00008f"/>
      <path id="Path_3070" data-name="Path 3070" d="M130.632,148.533h2.242l.231,2.307h.1c1.517-1.517,3.165-2.7,5.376-2.7,3.363,0,4.88,2.178,4.88,6.266v10.157h-2.7v-9.795c0-3-.923-4.285-3.034-4.285-1.649,0-2.771.856-4.386,2.472v11.608h-2.7Z" transform="translate(-20.304 -110.654)" fill="#00008f"/>
      <path id="Path_3071" data-name="Path 3071" d="M154.7,160.635v-4.453c-5.342.66-7.191,1.979-7.191,4.023,0,1.814,1.254,2.572,2.839,2.572,1.55,0,2.8-.758,4.352-2.143m-9.827-.231c0-3.5,3-5.244,9.827-6,0-2.045-.659-4.024-3.3-4.024a8.7,8.7,0,0,0-4.78,1.716l-1.056-1.881a11.889,11.889,0,0,1,6.3-2.075c3.926,0,5.573,2.6,5.573,6.594v9.828h-2.241l-.231-1.913h-.1a8.548,8.548,0,0,1-5.31,2.307,4.359,4.359,0,0,1-4.682-4.55" transform="translate(-19.185 -110.654)" fill="#00008f"/>
      <path id="Path_3072" data-name="Path 3072" d="M168.827,153.806a3.409,3.409,0,1,0-6.792,0,3.418,3.418,0,1,0,6.792,0m2.079,12.884c0-1.474-1.156-1.967-3.233-1.967H164.9a7.912,7.912,0,0,1-2.077-.262,3.351,3.351,0,0,0-1.649,2.689c0,1.7,1.748,2.786,4.651,2.786,3.067,0,5.078-1.574,5.078-3.246m-12.1.819a4.6,4.6,0,0,1,2.342-3.6v-.131a2.939,2.939,0,0,1-1.418-2.592,3.723,3.723,0,0,1,1.748-2.949V158.1a5.629,5.629,0,0,1-2.079-4.3c0-3.473,2.771-5.668,6.036-5.668a6.44,6.44,0,0,1,2.274.392h5.574V150.6h-3.3a4.606,4.606,0,0,1,1.318,3.277c0,3.411-2.6,5.539-5.869,5.539a5.626,5.626,0,0,1-2.407-.554,2.408,2.408,0,0,0-1.024,1.9c0,1.015.66,1.736,2.837,1.736h3.1c3.727,0,5.607,1.148,5.607,3.8,0,2.951-3.133,5.507-8.111,5.507-3.925,0-6.629-1.541-6.629-4.3" transform="translate(-18.089 -110.654)" fill="#00008f"/>
      <path id="Path_3073" data-name="Path 3073" d="M184.263,155.259c0-3.232-1.451-4.979-3.956-4.979-2.244,0-4.289,1.814-4.616,4.979Zm-11.212,1.32c0-5.245,3.528-8.442,7.189-8.442,4.09,0,6.4,2.936,6.4,7.518a10.334,10.334,0,0,1-.1,1.55H175.723c.2,3.4,2.275,5.573,5.342,5.573a7.264,7.264,0,0,0,3.99-1.252l.957,1.78a9.542,9.542,0,0,1-5.276,1.649c-4.29,0-7.685-3.132-7.685-8.375" transform="translate(-16.969 -110.654)" fill="#00008f"/>
      <path id="Path_3074" data-name="Path 3074" d="M188.553,148.533H190.8l.231,2.9h.1c1.089-2.011,2.736-3.3,4.55-3.3a3.986,3.986,0,0,1,1.716.33l-.527,2.374a4.516,4.516,0,0,0-1.551-.262c-1.352,0-2.966.989-4.056,3.692v10.289h-2.7Z" transform="translate(-15.75 -110.654)" fill="#00008f"/>
      <path id="Path_3075" data-name="Path 3075" d="M196.625,162.746l1.352-1.814a7.21,7.21,0,0,0,4.716,1.912c2.112,0,3.166-1.122,3.166-2.5,0-1.65-1.911-2.375-3.66-3.034-2.275-.826-4.782-1.913-4.782-4.618,0-2.571,2.044-4.551,5.506-4.551a7.985,7.985,0,0,1,4.98,1.813l-1.285,1.717a5.944,5.944,0,0,0-3.661-1.419c-2.014,0-2.936,1.088-2.936,2.307,0,1.518,1.748,2.079,3.563,2.771,2.308.857,4.88,1.812,4.88,4.847,0,2.6-2.077,4.782-5.869,4.782a9.651,9.651,0,0,1-5.97-2.209" transform="translate(-15.116 -110.654)" fill="#00008f"/>
    </g>
    <path id="Path_3076" data-name="Path 3076" d="M53.383,194.761v-2.068H38.792c.786-1.427,1.514-2.884,2.1-4.195L38.56,188a46.205,46.205,0,0,1-2.3,4.69H28.337v2.068h6.7a51.392,51.392,0,0,1-3.087,4.484l-.029.03c2.417.757,5.067,1.747,7.688,2.795a27.413,27.413,0,0,1-10.863,3.873,8.6,8.6,0,0,1,1.369,1.98c4.747-1.047,8.649-2.5,11.736-4.892a59.853,59.853,0,0,1,9.145,4.776l1.776-1.865a64.135,64.135,0,0,0-9.086-4.543,18.34,18.34,0,0,0,4.165-6.639Zm-8.009,0a15.277,15.277,0,0,1-3.815,5.8c-2.1-.817-4.252-1.6-6.26-2.242.727-1.049,1.513-2.272,2.3-3.553Zm-14.154-7.98H50.354V190.6H52.6v-5.826H42.258c-.437-.99-1.107-2.33-1.689-3.406l-2.212.523c.436.875.96,1.98,1.369,2.883H29.065V190.6H31.22Z" transform="translate(0 5.345)" fill="#00008f"/>
    <path id="Path_3077" data-name="Path 3077" d="M85.5,205.449V198.46H66.338v6.988H62.755v1.98H88.849v-1.98Zm-2.126,0h-3.7v-5.213h3.7Zm-5.708,0H74v-5.213h3.669Zm-9.29-5.213h3.64v5.213h-3.64Zm4.077-9.376c-.146,2.475-.291,3.466-.582,3.786-.175.2-.437.232-.815.232a25.869,25.869,0,0,1-2.592-.115,4.905,4.905,0,0,1,.5,1.688,27.1,27.1,0,0,0,3.029.03,2.091,2.091,0,0,0,1.573-.67c.553-.582.786-2.126.961-5.913.029-.261.058-.785.058-.785H67.415c.029-.349.029-.67.029-.99v-1.6H76.5a23.267,23.267,0,0,0,2.65,6.64,24.717,24.717,0,0,1-4.718,2.766,12.36,12.36,0,0,1,1.456,1.6,30.853,30.853,0,0,0,4.4-2.767c1.573,1.951,3.466,3.116,5.417,3.116s2.738-.961,3.087-4.543a5.432,5.432,0,0,1-1.747-.962c-.146,2.535-.466,3.438-1.223,3.438-1.311,0-2.679-.875-3.9-2.417a22.572,22.572,0,0,0,4.456-5.5l-1.951-.612a18.364,18.364,0,0,1-3.611,4.513,23.706,23.706,0,0,1-2.155-5.27H88.3v-1.893H83.782l1.048-.7a18.2,18.2,0,0,0-3.233-2.564l-1.485.933a15.839,15.839,0,0,1,2.825,2.33h-4.66a22.548,22.548,0,0,1-.379-3.175H75.773a22.548,22.548,0,0,0,.379,3.175H65.318v3.465c0,2.708-.349,6.5-2.679,9.32a6.784,6.784,0,0,1,1.776,1.339,15.1,15.1,0,0,0,2.883-7.891Z" transform="translate(2.697 5.344)" fill="#00008f"/>
    <path id="Path_3078" data-name="Path 3078" d="M121.319,194.032l-.408.087H107.894v2.04h1.136l-.292.115a20.456,20.456,0,0,0,4.747,6.67,25.286,25.286,0,0,1-7.863,3.086,6.862,6.862,0,0,1,1.078,1.98,27.194,27.194,0,0,0,8.533-3.668,22.936,22.936,0,0,0,8.155,3.64,7.741,7.741,0,0,1,1.369-1.98,23.752,23.752,0,0,1-7.719-3,18.225,18.225,0,0,0,5.679-8.329Zm-1.514,2.127a15.868,15.868,0,0,1-4.544,5.561,16.941,16.941,0,0,1-4.427-5.561Zm-12.348-.059-.292-1.98-2.707.787v-5.68h3.61V187.19h-3.61v-5.826h-2.126v5.826H98.371v2.038h3.961v6.262c-1.632.466-3.117.873-4.311,1.165l.642,2.1,3.669-1.078v7.515c0,.408-.146.553-.554.553-.348,0-1.6.029-3-.03a9.582,9.582,0,0,1,.67,2.011,10.45,10.45,0,0,0,3.932-.408c.756-.32,1.078-.9,1.078-2.126V197Zm5.3-11.677h5.066v4.659c0,2.155.466,3,2.477,3h2.445a6.187,6.187,0,0,0,1.573-.146c-.086-.5-.145-1.311-.174-1.865a7.718,7.718,0,0,1-1.456.146h-2.244c-.466,0-.553-.289-.553-1.106v-6.728h-9.174v3.2a6.5,6.5,0,0,1-3.728,6.233,10.41,10.41,0,0,1,1.4,1.6,8.4,8.4,0,0,0,4.368-7.776Z" transform="translate(5.479 5.344)" fill="#00008f"/>
    <path id="Path_3079" data-name="Path 3079" d="M149.731,204.663a58.51,58.51,0,0,1,8.125,3.233l1.922-1.252a76.074,76.074,0,0,0-8.562-3.145Zm-7.106-1.136a36.221,36.221,0,0,1-8.533,2.8,13.623,13.623,0,0,1,1.573,1.631,41.3,41.3,0,0,0,8.912-3.553Zm-.582-16.338c-3.029.932-6.087,1.864-8.154,2.446l.815,1.864c2.213-.7,4.951-1.69,7.572-2.593Zm.32-2.913a37.5,37.5,0,0,0-6.087-2.242l-.961,1.485a38.913,38.913,0,0,1,6.087,2.418Zm7.572,1.02c-.757,2.533-3.786,4.165-7.426,4.834a6.848,6.848,0,0,1,.932,1.514,12.606,12.606,0,0,0,7.252-3.873,15.315,15.315,0,0,0,7.572,4.193,6.376,6.376,0,0,1,1.223-1.573c-3.291-.582-6.291-2.038-7.921-3.989a4.918,4.918,0,0,0,.349-.817Zm-12.173,18.027H156.6V191.645H137.761Zm2.1-10.222h14.59v1.98h-14.59Zm0,3.378h14.59v1.98h-14.59Zm0,3.378h14.59V201.9h-14.59ZM156.6,185.151a12.749,12.749,0,0,1-1.747,2.213l1.718.641a20.813,20.813,0,0,0,2.912-4.135l-1.456-.438-.349.087h-9.96c.349-.61.7-1.222.99-1.834l-1.951-.321a12.718,12.718,0,0,1-4.4,5.243,5.384,5.384,0,0,1,1.631,1.047,14.959,14.959,0,0,0,2.563-2.5Z" transform="translate(8.298 5.344)" fill="#00008f"/>
    <path id="Path_3080" data-name="Path 3080" d="M223.25,204.971V200.98h6.786V199H223.25v-3.408H229.6V182.634H214.8v12.959h6.262V199h-6.612v1.979h6.612v3.991h-8.853v1.98h18.755v-1.98Zm4.281-11.272h-4.457v-3.728h4.457Zm0-5.5h-4.457v-3.669h4.457Zm-10.747-3.671h4.428V188.2h-4.428Zm0,5.445h4.428V193.7h-4.428Zm-3.582,9.844-3.173,1.049v-7.193h2.94v-2.04h-2.94v-6.319h3.348v-2.04h-9.027v2.04h3.611v6.319h-3.32v2.04h3.32v7.834c-1.485.5-2.825.9-3.9,1.223l.5,2.184c2.591-.845,5.912-1.98,9.028-3.03Z" transform="translate(13.815 5.444)" fill="#00008f"/>
    <path id="Path_3081" data-name="Path 3081" d="M186.155,183.841c.262-.7.5-1.369.7-2.1l-2.1-.349a12.643,12.643,0,0,1-2.825,5.532,9.453,9.453,0,0,1,1.776,1.02,12.978,12.978,0,0,0,1.718-2.506h2.039a16.655,16.655,0,0,1,2.068,3.291l1.747-.815a15.814,15.814,0,0,0-1.6-2.475h5.184v-1.6Zm-5.708,3.9a17.961,17.961,0,0,1,.874,1.835H170.633v4.748h2.1v-3.03h19.25v3.03h2.155v-4.748h-10.6a15.054,15.054,0,0,0-1.165-2.242Zm-4.456,11.126h14.62v-5.8H173.836v14.969h2.155v-.99H190v.932h2.126v-7.106H175.992Zm12.494-1.66H175.992v-2.475h12.494ZM190,205.361H175.992v-2.8H190Zm-14.823-19.92a18.28,18.28,0,0,1,1.514,3.2l1.835-.669a14.817,14.817,0,0,0-1.281-2.535h4.427v-1.63h-7.776a17.932,17.932,0,0,0,.728-2.1l-2.1-.349a15.959,15.959,0,0,1-3.553,6.583,17.9,17.9,0,0,1,1.835.99,15.272,15.272,0,0,0,2.359-3.5Z" transform="translate(11.057 5.344)" fill="#00008f"/>
  </g>
</svg>
